<svg xmlns="http://www.w3.org/2000/svg" version="1.1" xmlns:xlink="http://www.w3.org/1999/xlink" xmlns:svgjs="http://svgjs.dev/svgjs" width="1440" height="560" preserveAspectRatio="none" viewBox="0 0 1440 560">
    <g mask="url(&quot;#SvgjsMask1026&quot;)" fill="none">
        <path d="M1346.3436730883134 179.95764750315635L1323.8807330176364 277.25533048478445 1421.1784159992644 299.7182705554614 1443.6413560699416 202.4205875738333z" fill="rgba(0, 0, 0, 0.4)" class="triangle-float3"></path>
        <path d="M824.368,376.835C845.125,376.249,866.479,370.712,877.402,353.052C888.836,334.565,887.724,310.954,876.709,292.214C865.842,273.725,845.807,263.374,824.368,262.822C801.833,262.241,779.104,270.287,767.138,289.391C754.465,309.624,752.801,336.227,765.875,356.203C778.01,374.744,802.218,377.461,824.368,376.835" fill="rgba(0, 0, 0, 0.4)" class="triangle-float1"></path>
        <path d="M586.6212038719026 273.4978901160325L493.1502359470434 366.96885804089175 680.0921717967618 366.9688580408917z" fill="rgba(0, 0, 0, 0.4)" class="triangle-float2"></path>
        <path d="M1256.9780810819655 66.74140337663093L1200.3488467470272 193.9327461709413 1327.5401895413377 250.56198050587946 1384.169423876276 123.37063771156909z" fill="rgba(0, 0, 0, 0.4)" class="triangle-float3"></path>
        <path d="M720.2216442828878 282.88772396561785L718.0594820194079 220.9714977498454 626.2662238274892 255.17285425295145z" fill="rgba(0, 0, 0, 0.4)" class="triangle-float1"></path>
        <path d="M1355.004634516733 1.392086223459259L1344.5354234319693 86.65696812536541 1477.6673518272105 59.72834380155768z" fill="rgba(0, 0, 0, 0.4)" class="triangle-float2"></path>
        <path d="M819.635,471.621C858.29,471.473,887.338,439.767,905.314,405.546C921.89,373.99,925.289,336.228,906.749,305.784C888.863,276.414,854.022,265.015,819.635,264.854C784.909,264.691,749.269,275.37,731.094,304.96C712.159,335.787,715.836,374.259,732.809,406.208C751.03,440.506,780.797,471.77,819.635,471.621" fill="rgba(0, 0, 0, 0.4)" class="triangle-float3"></path>
        <path d="M327.874,263.631C370.925,265.369,412.578,242.388,432.931,204.412C452.34,168.199,440.429,126.196,420.91,90.042C400.06,51.422,371.695,12.264,327.874,9.819C280.712,7.187,235.686,36.118,214.928,78.547C196.103,117.026,214.235,159.916,236.549,196.482C257.644,231.051,287.41,261.997,327.874,263.631" fill="rgba(0, 0, 0, 0.4)" class="triangle-float3"></path>
        <path d="M913.4020733852474 449.8327091762712L812.0353013886081 433.7777897260786 795.9803819384156 535.1445617227179 897.3471539350547 551.1994811729104z" fill="rgba(0, 0, 0, 0.4)" class="triangle-float3"></path>
        <path d="M959.9209317694197 256.47144351962663L1016.8753173100392 229.91317737652335 948.5607253250746 157.76073213714568z" fill="rgba(0, 0, 0, 0.4)" class="triangle-float2"></path>
        <path d="M237.1419556906856 283.7368553256576L207.03354877486564 345.4682376889959 314.6848257777831 359.76515688105667z" fill="rgba(0, 0, 0, 0.4)" class="triangle-float1"></path>
        <path d="M672.0474548673216 310.3504802898194L632.6427159802389 431.233680500725 741.744154348183 410.0265091833943z" fill="rgba(0, 0, 0, 0.4)" class="triangle-float1"></path>
        <path d="M996.4971569024096-11.378292742926718L856.5278953312597-54.31709518688935 883.13708186655 70.86928497576588z" fill="rgba(0, 0, 0, 0.4)" class="triangle-float1"></path>
        <path d="M917.299214870722 275.784371908473L1032.563081281279 429.0483712483443 1100.7471374893405 275.90447361108653z" fill="rgba(0, 0, 0, 0.4)" class="triangle-float1"></path>
        <path d="M367.6913707127149 83.37496025127926L276.7202645895857 67.33429977687854 298.14482693954926 211.81128919877267z" fill="rgba(0, 0, 0, 0.4)" class="triangle-float2"></path>
        <path d="M241.224,343.516C285.262,346.351,328.071,319.978,347.322,280.27C364.761,244.3,345.356,205.051,325.048,170.619C305.199,136.965,280.186,103.301,241.224,100.38C197.649,97.113,152.114,117.187,132.384,156.176C113.937,192.63,135.887,232.654,156.411,267.981C176.794,303.066,200.732,340.91,241.224,343.516" fill="rgba(0, 0, 0, 0.4)" class="triangle-float3"></path>
    </g>
    <defs>
        <mask id="SvgjsMask1026">
            <rect width="1440" height="560" fill="#ffffff"></rect>
        </mask>
        <style>
            @keyframes float1 {
                    0%{transform: translate(0, 0)}
                    50%{transform: translate(-10px, 0)}
                    100%{transform: translate(0, 0)}
                }

                .triangle-float1 {
                    animation: float1 5s infinite;
                }

                @keyframes float2 {
                    0%{transform: translate(0, 0)}
                    50%{transform: translate(-5px, -5px)}
                    100%{transform: translate(0, 0)}
                }

                .triangle-float2 {
                    animation: float2 4s infinite;
                }

                @keyframes float3 {
                    0%{transform: translate(0, 0)}
                    50%{transform: translate(0, -10px)}
                    100%{transform: translate(0, 0)}
                }

                .triangle-float3 {
                    animation: float3 6s infinite;
                }
        </style>
    </defs>
</svg>