<svg xmlns="http://www.w3.org/2000/svg" version="1.1" xmlns:xlink="http://www.w3.org/1999/xlink" width="1000" height="1000"><g clip-path="url(#SvgjsClipPath1131)"><rect width="1000" height="1000" fill="#ffffff"></rect><g transform="matrix(5,0,0,5,0,0)"><svg xmlns="http://www.w3.org/2000/svg" version="1.1" xmlns:xlink="http://www.w3.org/1999/xlink" width="200" height="200"><svg xmlns="http://www.w3.org/2000/svg" version="1.1" xmlns:xlink="http://www.w3.org/1999/xlink" viewBox="0 0 200 200"><rect width="200" height="200" fill="url('#gradient')"></rect><defs><linearGradient id="gradient" gradientTransform="rotate(0 0.5 0.5)"><stop offset="0%" stop-color="#1e1e1e"></stop><stop offset="100%" stop-color="#1e1e1e"></stop></linearGradient><clipPath id="SvgjsClipPath1131"><rect width="1000" height="1000" x="0" y="0" rx="250" ry="250"></rect></clipPath></defs><g><g fill="#f5f5f5" transform="matrix(12.08655737704918,0,0,12.08655737704918,67.06452150821686,189.98571063776484)" stroke="#d21d81" stroke-width="0.55"><path d="M4.39-10.57L4.39 0L1.09 0L1.09-10.57L4.39-10.57ZM0.90-13.29L0.90-13.29Q0.90-13.99 1.41-14.44Q1.91-14.89 2.72-14.89Q3.54-14.89 4.04-14.44Q4.55-13.99 4.55-13.29Q4.55-12.59 4.04-12.14Q3.54-11.69 2.72-11.69Q1.91-11.69 1.41-12.14Q0.90-12.59 0.90-13.29Z"></path></g></g></svg></svg></g></g></svg>